<svg id="レイヤー_1" data-name="レイヤー 1" xmlns="http://www.w3.org/2000/svg" viewBox="0 0 931.79 183.23"><defs><style>.cls-1{fill:#fff;}</style></defs><path class="cls-1" d="M212.93,215.52H133.5v-4.89q12-.49,16.63-2,8.73-2.7,8.73-10.27,0-6.12-5.82-17.62l-12.47-24.22H54.9L41.17,187.63a27.88,27.88,0,0,0-2.49,10.77q0,7.82,7.07,10.27,3.31,1.47,12.89,2v4.89H0v-4.89c2.22-.33,4.57-.74,7.07-1.23a13.53,13.53,0,0,0,7.07-4.15q6.65-6.85,22-38.66l65.29-134.3H104l79,154.36q7.91,14.92,14.56,19.82,4.58,3.18,15.39,4.16Zm-76.94-68L96.9,67.27,58.64,147.51Z" transform="translate(0 -32.29)"/><path class="cls-1" d="M421.6,215.52H337.17v-4.89q21.63-1.47,27.87-10.52,2.9-4.65,2.91-20.06V126.47H259.82v57q0,14.44,6.24,20.31,6.65,5.37,25.78,6.85v4.89H208.67v-4.89q19.13-1.23,24.12-7.83,3.75-4.89,3.74-22.75V64.34q0-13.7-2.91-16.64-4.16-5.87-25-7.58V35.47h83.17v4.65q-20.37,1.71-25.78,5.14-6.24,4.4-6.24,19.08v53.33H368V64.34q0-14.93-6.24-19.33-5-3.42-24.54-4.89V35.47H421.6v4.65Q402,41.83,397.48,45.26q-6.24,4.4-6.24,19.08V183.47q0,14.68,6.24,20.31,5.4,5.37,24.12,6.85Z" transform="translate(0 -32.29)"/><path class="cls-1" d="M591.52,171.49l-15.38,44H379v-4.89q20.37-1.23,27.45-4.89,9.14-5.38,9.15-20.31V65.81q0-15.66-9.57-20.8-6.66-3.42-27-4.65V35.47h193.8l2.49,36.7h-7.9q-4.57-18.6-14.55-23.49-10.41-4.89-42.42-4.89H454.28q-8.31,0-10.81,1.22-4.16,2.2-4.16,8.07V116h63.63q23.7,0,32-5.39,6.24-4.39,9.57-19.81h7.9v60.91h-7.9q-3.33-16.63-10.81-21Q526.24,126,502.94,126H439.31v68q0,8.81,10.82,11.26,10.38,2,53.23,1.95,34.93,0,51.15-7.34T584,171.49Z" transform="translate(0 -32.29)"/><path class="cls-1" d="M762.28,215.52H682.85v-4.89q12.06-.49,16.63-2,8.74-2.7,8.74-10.27,0-6.12-5.82-17.62l-12.48-24.22H604.25l-13.73,31.07A27.88,27.88,0,0,0,588,198.4q0,7.82,7.07,10.27,3.31,1.47,12.89,2v4.89H549.35v-4.89q3.33-.49,7.07-1.23a13.49,13.49,0,0,0,7.07-4.15q6.64-6.85,22-38.66l65.3-134.3h2.49l79,154.36q7.89,14.92,14.55,19.82,4.58,3.18,15.39,4.16Zm-76.94-68L646.25,67.27,608,147.51Z" transform="translate(0 -32.29)"/><path class="cls-1" d="M931.79,126q0,35.22-22.46,58.22Q879,215.52,812.44,215.52H719.7v-4.89q19.53-1.47,26.2-5.63,7.89-5.38,7.9-19.57V65.81q0-14.93-7.9-20.06-5.83-3.91-26.2-5.39V35.47h88.58q59,0,91.49,23Q931.8,81.21,931.79,126Zm-28.69.24q0-41.1-30-63.6-25.36-18.84-80.26-18.84-12.06,0-15.8,3.67-2.08,2.2-2.08,9V194.24q0,9,6.24,11.5,4.56,1.45,15.38,1.46Q903.09,207.2,903.1,126.23Z" transform="translate(0 -32.29)"/><polygon class="cls-1" points="229.05 98.62 161.3 98.62 153.3 82.17 229.05 82.17 229.05 98.62"/></svg>